<svg width="24" height="24" viewBox="0 0 24 24" fill="none" xmlns="http://www.w3.org/2000/svg">
<path d="M7 18.25L17 18.25C17.4142 18.2501 17.75 18.5858 17.75 19.0001C17.75 19.3797 17.4678 19.6935 17.1018 19.7432L17 19.75L7 19.75C6.58578 19.75 6.25 19.4142 6.25 19C6.25 18.6203 6.53216 18.3065 6.89823 18.2568L7 18.25Z" fill="white"/>
<path d="M19 16.25C20.4425 16.25 21.637 17.3643 21.7441 18.8232L21.75 19C21.75 20.4425 20.6357 21.637 19.1768 21.7441L19 21.75C17.5575 21.75 16.363 20.6357 16.2559 19.1768L16.25 19C16.25 17.5575 17.3643 16.363 18.8232 16.2559L19 16.25ZM18.9062 17.7539C18.2571 17.8018 17.7495 18.3447 17.749 18.9727L17.7539 19.0938C17.8018 19.7429 18.3447 20.2505 18.9727 20.251L19.0938 20.2461C19.7429 20.1982 20.2505 19.6553 20.251 19.0273L20.2461 18.9062C20.1982 18.2571 19.6555 17.75 19 17.75L18.9062 17.7539Z" fill="white"/>
<path d="M17 4.25C17.4142 4.25 17.75 4.58579 17.75 5C17.75 5.3797 17.4678 5.69349 17.1018 5.74315L17 5.75H7C6.58579 5.75 6.25 5.41421 6.25 5C6.25 4.6203 6.53215 4.30651 6.89823 4.25685L7 4.25H17Z" fill="white"/>
<path d="M19 2.25C20.4425 2.25 21.637 3.36433 21.7441 4.82324L21.75 5C21.75 6.4425 20.6357 7.63702 19.1768 7.74414L19 7.75C17.5575 7.75 16.363 6.63567 16.2559 5.17676L16.25 5C16.25 3.5575 17.3643 2.36298 18.8232 2.25586L19 2.25ZM18.9062 3.75391C18.2571 3.8018 17.7495 4.34471 17.749 4.97266L17.7539 5.09375C17.8018 5.74294 18.3447 6.25047 18.9727 6.25098L19.0938 6.24609C19.7429 6.1982 20.2505 5.65529 20.251 5.02734L20.2461 4.90625C20.1982 4.25706 19.6555 3.75 19 3.75L18.9062 3.75391Z" fill="white"/>
<path d="M5 2.25C6.4425 2.25 7.63702 3.36433 7.74414 4.82324L7.75 5C7.75 6.4425 6.63567 7.63702 5.17676 7.74414L5 7.75C3.5575 7.75 2.36298 6.63567 2.25586 5.17676L2.25 5C2.25 3.5575 3.36433 2.36298 4.82324 2.25586L5 2.25ZM4.90625 3.75391C4.25706 3.8018 3.74953 4.34471 3.74902 4.97266L3.75391 5.09375C3.8018 5.74294 4.34471 6.25047 4.97266 6.25098L5.09375 6.24609C5.74294 6.1982 6.25047 5.65529 6.25098 5.02734L6.24609 4.90625C6.1982 4.25706 5.65549 3.75 5 3.75L4.90625 3.75391Z" fill="white"/>
<path d="M5 16.25C6.4425 16.25 7.63702 17.3643 7.74414 18.8232L7.75 19C7.75 20.4425 6.63567 21.637 5.17676 21.7441L5 21.75C3.5575 21.75 2.36298 20.6357 2.25586 19.1768L2.25 19C2.25 17.5575 3.36433 16.363 4.82324 16.2559L5 16.25ZM4.90625 17.7539C4.25706 17.8018 3.74953 18.3447 3.74902 18.9727L3.75391 19.0938C3.8018 19.7429 4.34471 20.2505 4.97266 20.251L5.09375 20.2461C5.74294 20.1982 6.25047 19.6553 6.25098 19.0273L6.24609 18.9062C6.1982 18.2571 5.65549 17.75 5 17.75L4.90625 17.7539Z" fill="white"/>
<path d="M5.00005 6.25C5.37975 6.25 5.69354 6.53216 5.7432 6.89823L5.75005 7L5.75 17C5.75 17.4142 5.41421 17.75 5 17.75C4.6203 17.75 4.30651 17.4678 4.25685 17.1018L4.25 17L4.25005 7C4.25005 6.58578 4.58584 6.25 5.00005 6.25Z" fill="white"/>
<path d="M19.0001 6.25C19.3798 6.25 19.6936 6.53216 19.7432 6.89824L19.7501 7.00001L19.75 17C19.75 17.4142 19.4142 17.75 19 17.75C18.6203 17.75 18.3065 17.4678 18.2568 17.1018L18.25 17L18.2501 6.99999C18.2501 6.58578 18.5859 6.25 19.0001 6.25Z" fill="white"/>
<path d="M13.8881 8.70896C14.2806 8.40454 14.8475 8.43279 15.2076 8.79334C15.5977 9.18394 15.5975 9.81676 15.2071 10.2071C14.8168 10.5975 14.1839 10.5977 13.7933 10.2076C13.4328 9.84746 13.4045 9.28056 13.709 8.88806L13.793 8.791L13.8881 8.70896Z" fill="white"/>
<path d="M5.97232 10.4727C10.1451 10.4727 13.5279 13.8554 13.5279 18.0335C13.5253 18.3954 13.4964 18.7567 13.4414 19.1145C13.3784 19.5239 12.9954 19.8047 12.586 19.7417C12.1766 19.6787 11.8958 19.2958 11.9588 18.8864C12.0028 18.6006 12.0259 18.3121 12.0279 18.0282C12.0279 14.6838 9.31672 11.9727 5.97921 11.9726C5.68905 11.9753 5.39944 11.9985 5.11254 12.042C4.70301 12.1041 4.32068 11.8224 4.25858 11.4129C4.19648 11.0033 4.47814 10.621 4.88767 10.5589C5.24444 10.5048 5.6046 10.476 5.97232 10.4727Z" fill="white"/>
</svg>
