<svg width="24" height="24" viewBox="0 0 24 24" fill="none" xmlns="http://www.w3.org/2000/svg">
<path d="M8.91406 12.7354C10.2206 12.8203 11.2538 13.9073 11.2539 15.2354C11.2539 16.6188 10.1325 17.7402 8.74902 17.7402C7.3656 17.7402 6.24414 16.6188 6.24414 15.2354C6.2442 13.852 7.36564 12.7305 8.74902 12.7305L8.91406 12.7354ZM8.63184 14.2373C8.1321 14.2954 7.7442 14.72 7.74414 15.2354C7.74414 15.7904 8.19403 16.2402 8.74902 16.2402C9.30407 16.2402 9.75391 15.7904 9.75391 15.2354C9.75384 14.6804 9.30403 14.2305 8.74902 14.2305L8.63184 14.2373Z" fill="white"/>
<path d="M16.6455 8.14808C17.0104 7.95202 17.4651 8.08886 17.6612 8.45373C17.8409 8.78819 17.7409 9.19816 17.442 9.41519L17.3555 9.4694L8.25555 14.3594C7.89068 14.5555 7.43595 14.4186 7.23988 14.0538C7.06015 13.7193 7.16016 13.3093 7.45912 13.0923L7.54552 13.0381L16.6455 8.14808Z" fill="white"/>
<path d="M16 2.25C19.1756 2.25 21.75 4.82436 21.75 8V16C21.75 19.1756 19.1756 21.75 16 21.75H8C4.82436 21.75 2.25 19.1756 2.25 16V8C2.25 4.82436 4.82436 2.25 8 2.25H16ZM8 3.75C5.65279 3.75 3.75 5.65279 3.75 8V16C3.75 18.3472 5.65279 20.25 8 20.25H16C18.3472 20.25 20.25 18.3472 20.25 16V8C20.25 5.65279 18.3472 3.75 16 3.75H8Z" fill="white"/>
<path d="M8.91406 6.24316C10.2206 6.32807 11.2538 7.41515 11.2539 8.74316C11.2539 10.1266 10.1325 11.248 8.74902 11.248C7.3656 11.248 6.24414 10.1266 6.24414 8.74316C6.2442 7.35978 7.36564 6.23834 8.74902 6.23828L8.91406 6.24316ZM8.63184 7.74512C8.1321 7.80322 7.7442 8.22785 7.74414 8.74316C7.74414 9.29817 8.19403 9.74798 8.74902 9.74805C9.30407 9.74805 9.75391 9.29821 9.75391 8.74316C9.75384 8.18817 9.30403 7.73828 8.74902 7.73828L8.63184 7.74512Z" fill="white"/>
<path d="M7.24018 9.92582C7.4202 9.59151 7.8174 9.44899 8.16326 9.57882L8.25611 9.62104L17.3561 14.521C17.7208 14.7174 17.8573 15.1723 17.6609 15.537C17.4809 15.8713 17.0837 16.0138 16.7378 15.884L16.645 15.8417L7.54496 10.9417C7.18026 10.7454 7.0438 10.2905 7.24018 9.92582Z" fill="white"/>
</svg>
