<svg width="24" height="24" viewBox="0 0 24 24" fill="none" xmlns="http://www.w3.org/2000/svg">
<path d="M16.4443 3.70226C17.5747 2.71454 19.2772 2.77152 20.3603 3.85558L20.498 4.00597C21.4082 5.0796 21.3994 6.66325 20.4677 7.72667L13.4365 15.7638C12.3897 16.9605 10.5465 17.0222 9.42183 15.8976L8.2734 14.7482C7.14863 13.6233 7.20898 11.782 8.40621 10.7345L16.4443 3.70226ZM19.2783 4.89367C18.7749 4.39029 17.9676 4.36306 17.4316 4.83117L9.39449 11.8634C8.8503 12.3395 8.82262 13.1762 9.33394 13.6876L10.4834 14.837C10.9944 15.3477 11.8321 15.32 12.3076 14.7765L19.3398 6.73937C19.7812 6.23561 19.7847 5.48351 19.374 4.99816L19.2783 4.89367Z" fill="white"/>
<path d="M9.92704 9.41075C10.1933 9.14448 10.61 9.12028 10.9036 9.33813L10.9877 9.41075L14.7677 13.1907C15.0606 13.4836 15.0606 13.9585 14.7677 14.2514C14.5014 14.5177 14.0848 14.5419 13.7912 14.324L13.707 14.2514L9.92704 10.4714C9.63415 10.1785 9.63415 9.70364 9.92704 9.41075Z" fill="white"/>
<path d="M3.59795 15.4846C4.55947 12.919 7.85071 12.2062 9.80108 14.1565L9.93584 14.299C12.3108 16.9171 10.4507 21.1438 6.88897 21.1438H3.18682C2.35974 21.1438 1.78734 20.3189 2.07549 19.5442L3.59795 15.4846ZM8.72784 15.2043C7.56154 14.0382 5.58087 14.4677 5.00225 16.0119L3.64092 19.6438H6.88897C9.09187 19.6438 10.2689 17.0913 8.9417 15.4416L8.83819 15.3195L8.72784 15.2043Z" fill="white"/>
</svg>
