<svg width="24" height="24" viewBox="0 0 24 24" fill="none" xmlns="http://www.w3.org/2000/svg">
<path d="M13.1719 3.25C13.9011 3.25008 14.6006 3.54001 15.1162 4.05566L16.2373 5.17676C16.2842 5.22361 16.3478 5.24996 16.4141 5.25H19C20.5188 5.25 21.75 6.48122 21.75 8V17C21.75 18.5188 20.5188 19.75 19 19.75H5C3.48122 19.75 2.25 18.5188 2.25 17V8C2.25 6.48122 3.48122 5.25 5 5.25H7.58594C7.65218 5.24996 7.71585 5.22361 7.7627 5.17676L8.88379 4.05566C9.39944 3.54 10.0989 3.25008 10.8281 3.25H13.1719ZM10.8281 4.75C10.4967 4.75008 10.1787 4.88185 9.94434 5.11621L8.82324 6.2373C8.49509 6.56545 8.05001 6.74996 7.58594 6.75H5C4.30964 6.75 3.75 7.30964 3.75 8V17C3.75 17.6904 4.30965 18.25 5 18.25H19C19.6904 18.25 20.25 17.6904 20.25 17V8C20.25 7.30965 19.6904 6.75 19 6.75H16.4141C15.95 6.74996 15.5049 6.56546 15.1768 6.2373L14.0557 5.11621C13.8213 4.88186 13.5033 4.75008 13.1719 4.75H10.8281Z" fill="white"/>
<path d="M12 7.25C14.6234 7.25 16.75 9.37665 16.75 12C16.75 14.6234 14.6234 16.75 12 16.75C9.37665 16.75 7.25 14.6234 7.25 12C7.25 9.37665 9.37665 7.25 12 7.25ZM12 8.75C10.2051 8.75 8.75 10.2051 8.75 12C8.75 13.7949 10.2051 15.25 12 15.25C13.7949 15.25 15.25 13.7949 15.25 12C15.25 10.2051 13.7949 8.75 12 8.75Z" fill="white"/>
<path d="M17.9983 8.19922C18.2108 8.19896 18.4146 8.28327 18.5649 8.43353C18.6551 8.52369 18.7215 8.63315 18.7601 8.75219L18.7894 8.87407L18.7992 9.00034C18.7986 9.4419 18.4403 9.79945 17.9988 9.79922C17.5572 9.79898 17.1994 9.44104 17.1992 8.99949C17.1991 8.55793 17.5567 8.19975 17.9983 8.19922Z" fill="white"/>
<path d="M12 9.75C12.4142 9.75 12.75 10.0858 12.75 10.5C12.75 10.8797 12.4678 11.1935 12.1018 11.2432L12 11.25C11.6203 11.25 11.3065 11.5322 11.2568 11.8982L11.25 12C11.25 12.4142 10.9142 12.75 10.5 12.75C10.0858 12.75 9.75 12.4142 9.75 12C9.75 10.7574 10.7574 9.75 12 9.75Z" fill="white"/>
</svg>
