<svg width="24" height="24" viewBox="0 0 24 24" fill="none" xmlns="http://www.w3.org/2000/svg">
<path d="M5.00004 14.7501C5.41425 14.7501 5.75002 15.0859 5.75 15.5001C5.74998 15.8798 5.46781 16.1936 5.10173 16.2433L4.99996 16.2501L2.99996 16.25C2.58575 16.25 2.24998 15.9142 2.25 15.5C2.25002 15.1203 2.53219 14.8065 2.89827 14.7568L3.00004 14.75L5.00004 14.7501Z" fill="white"/>
<path d="M4.99995 11.2503C5.41416 11.2504 5.74989 11.5863 5.74982 12.0005C5.74976 12.3802 5.46755 12.6939 5.10146 12.7435L4.99969 12.7503L2.99987 12.75C2.58566 12.7499 2.24993 12.4141 2.25 11.9999C2.25006 11.6202 2.53227 11.3064 2.89836 11.2568L3.00013 11.25L4.99995 11.2503Z" fill="white"/>
<path d="M4.99966 7.75005C5.41387 7.75006 5.74965 8.08586 5.74964 8.50007C5.74963 8.87976 5.46747 9.19355 5.10139 9.24321L4.99962 9.25005L2.99998 9.25C2.58577 9.24999 2.24999 8.91419 2.25 8.49998C2.25001 8.12029 2.53217 7.8065 2.89825 7.75684L3.00002 7.75L4.99966 7.75005Z" fill="white"/>
<path d="M21 7.75005C21.4142 7.75006 21.75 8.08586 21.75 8.50007C21.75 8.87976 21.4678 9.19355 21.1018 9.24321L21 9.25005L19 9.25C18.5858 9.24999 18.25 8.91419 18.25 8.49998C18.25 8.12029 18.5322 7.8065 18.8982 7.75684L19 7.75L21 7.75005Z" fill="white"/>
<path d="M20.9999 11.2503C21.4142 11.2504 21.7499 11.5863 21.7498 12.0005C21.7498 12.3802 21.4675 12.6939 21.1015 12.7435L20.9997 12.7503L18.9999 12.75C18.5857 12.7499 18.2499 12.4141 18.25 11.9999C18.2501 11.6202 18.5323 11.3064 18.8984 11.2568L19.0001 11.25L20.9999 11.2503Z" fill="white"/>
<path d="M20.9997 14.75C21.4139 14.7501 21.7497 15.0859 21.7496 15.5001C21.7496 15.8798 21.4675 16.1936 21.1014 16.2432L20.9996 16.25L19 16.25C18.5858 16.25 18.25 15.9142 18.25 15.5C18.25 15.1203 18.5322 14.8065 18.8982 14.7568L19 14.75L20.9997 14.75Z" fill="white"/>
<path d="M8.50007 2.25C8.87976 2.25001 9.19355 2.53217 9.24321 2.89825L9.25005 3.00002L9.25 5.00002C9.24999 5.41423 8.91419 5.75001 8.49998 5.75C8.12029 5.74999 7.8065 5.46783 7.75684 5.10175L7.75 4.99998L7.75005 2.99998C7.75006 2.58577 8.08586 2.24999 8.50007 2.25Z" fill="white"/>
<path d="M12.0005 2.25C12.3802 2.25006 12.6939 2.53227 12.7435 2.89836L12.7503 3.00013L12.75 4.99995C12.7499 5.41416 12.4141 5.74989 11.9999 5.74982C11.6202 5.74976 11.3064 5.46755 11.2568 5.10146L11.25 4.99969L11.2503 2.99987C11.2504 2.58566 11.5863 2.24993 12.0005 2.25Z" fill="white"/>
<path d="M15.5001 2.25C15.8798 2.25001 16.1936 2.53217 16.2432 2.89825L16.25 3.00002L16.25 4.99966C16.25 5.41387 15.9142 5.74965 15.5 5.74964C15.1203 5.74963 14.8065 5.46747 14.7568 5.10139L14.75 4.99962L14.75 2.99998C14.7501 2.58577 15.0859 2.24999 15.5001 2.25Z" fill="white"/>
<path d="M15.5001 18.25C15.8798 18.25 16.1936 18.5322 16.2433 18.8983L16.2501 19L16.25 21C16.25 21.4143 15.9142 21.75 15.5 21.75C15.1203 21.75 14.8065 21.4678 14.7568 21.1017L14.75 21L14.7501 19C14.7501 18.5857 15.0859 18.25 15.5001 18.25Z" fill="white"/>
<path d="M12.0005 18.25C12.3802 18.2501 12.6939 18.5323 12.7435 18.8984L12.7503 19.0001L12.75 20.9999C12.7499 21.4142 12.4141 21.7499 11.9999 21.7498C11.6202 21.7498 11.3064 21.4675 11.2568 21.1015L11.25 20.9997L11.2503 18.9999C11.2504 18.5857 11.5863 18.2499 12.0005 18.25Z" fill="white"/>
<path d="M8.50007 18.25C8.87976 18.25 9.19355 18.5322 9.24321 18.8982L9.25005 19L9.25 20.9997C9.24999 21.4139 8.91419 21.7497 8.49998 21.7496C8.12029 21.7496 7.8065 21.4675 7.75684 21.1014L7.75 20.9996L7.75005 19C7.75006 18.5858 8.08586 18.25 8.50007 18.25Z" fill="white"/>
<path d="M15 4.25C17.6234 4.25 19.75 6.37665 19.75 9V15C19.75 17.6234 17.6234 19.75 15 19.75H9C6.37665 19.75 4.25 17.6234 4.25 15V9C4.25 6.37665 6.37665 4.25 9 4.25H15ZM9 5.75C7.20507 5.75 5.75 7.20507 5.75 9V15C5.75 16.7949 7.20507 18.25 9 18.25H15C16.7949 18.25 18.25 16.7949 18.25 15V9C18.25 7.20507 16.7949 5.75 15 5.75H9Z" fill="white"/>
<path d="M12.2767 12.6289C12.6909 12.6289 13.0267 12.9647 13.0267 13.3789C13.0267 13.7586 12.7446 14.0724 12.3785 14.1221L12.2767 14.1289H8.73242C8.31821 14.1289 7.98242 13.7931 7.98242 13.3789C7.98242 12.9992 8.26458 12.6854 8.63065 12.6358L8.73242 12.6289H12.2767Z" fill="white"/>
<path d="M11.0897 8.94922C11.3787 8.94922 11.6385 9.11478 11.763 9.36884L11.8032 9.46811L13.2932 14.0681C13.4208 14.4622 13.2048 14.8851 12.8108 15.0127C12.4495 15.1297 12.0641 14.958 11.904 14.625L11.8662 14.5303L10.5437 10.4492H10.4747L9.15316 14.5303C9.03616 14.8916 8.67104 15.1031 8.30747 15.0376L8.20854 15.0127C7.84732 14.8957 7.63574 14.5306 7.70131 14.167L7.72615 14.0681L9.21615 9.46811C9.30522 9.19313 9.54278 8.99702 9.82284 8.95683L9.92966 8.94922H11.0897Z" fill="white"/>
<path d="M15.1094 8.94922C15.4891 8.94922 15.8029 9.23137 15.8525 9.59745L15.8594 9.69922V14.2992C15.8594 14.7134 15.5236 15.0492 15.1094 15.0492C14.7297 15.0492 14.4159 14.7671 14.3662 14.401L14.3594 14.2992V9.69922C14.3594 9.28501 14.6952 8.94922 15.1094 8.94922Z" fill="white"/>
</svg>
