<svg width="24" height="24" viewBox="0 0 24 24" fill="none" xmlns="http://www.w3.org/2000/svg">
<path d="M9.55599 9.19792C9.84888 8.90503 10.3238 8.90503 10.6166 9.19792L14.8013 13.3826C15.0942 13.6754 15.0942 14.1503 14.8013 14.4432L8.57888 20.6656C7.18773 22.0568 4.95427 22.1178 3.47514 20.8003L3.33359 20.6656C1.88515 19.2172 1.88515 16.8688 3.33359 15.4203L9.55599 9.19792ZM4.39425 16.481C3.5691 17.3061 3.53293 18.6219 4.27271 19.4765L4.37905 19.5898L4.48954 19.6947C5.35995 20.4695 6.6899 20.4333 7.51822 19.605L13.2096 13.9122L10.0856 10.7882L4.39425 16.481Z" fill="white"/>
<path d="M13.4335 2.27769L13.54 2.29234C15.4782 2.5697 17.2848 3.43149 18.7304 4.77086L18.9853 5.01598C20.4576 6.48861 21.4127 8.39878 21.7079 10.4613L21.7226 10.5668C21.9272 11.9973 20.9784 13.3385 19.5615 13.6214L14.4179 14.6507C14.172 14.6999 13.9175 14.622 13.7402 14.4447L9.5556 10.2601C9.37828 10.0828 9.30133 9.82829 9.35052 9.58238L10.3788 4.43883C10.6618 3.02177 12.003 2.07321 13.4335 2.27769ZM13.2216 3.76207C12.5794 3.67023 11.9767 4.09634 11.8495 4.73277L10.8994 9.48277L14.5165 13.1L19.2675 12.1507C19.8613 12.0322 20.2726 11.4991 20.2499 10.9056L20.2382 10.7777L20.2236 10.6732C19.9745 8.93264 19.1675 7.31961 17.9345 6.08629L17.7011 5.86168C16.4894 4.7391 14.9634 4.01167 13.3281 3.77769L13.2216 3.76207Z" fill="white"/>
<path d="M7.46967 15.4697C7.76256 15.1768 8.23744 15.1768 8.53033 15.4697C8.7966 15.7359 8.8208 16.1526 8.60295 16.4462L8.53033 16.5303L6.53033 18.5303C6.23744 18.8232 5.76256 18.8232 5.46967 18.5303C5.2034 18.2641 5.1792 17.8474 5.39705 17.5538L5.46967 17.4697L7.46967 15.4697Z" fill="white"/>
</svg>
