<svg width="24" height="24" viewBox="0 0 24 24" fill="none" xmlns="http://www.w3.org/2000/svg">
<path d="M18.2383 2.25C20.1776 2.25 21.75 3.82243 21.75 5.76172V18.2383C21.75 20.1776 20.1776 21.75 18.2383 21.75H5.76172C3.82243 21.75 2.25 20.1776 2.25 18.2383V5.76172C2.25 3.82243 3.82243 2.25 5.76172 2.25H18.2383ZM5.76172 3.75C4.65085 3.75 3.75 4.65085 3.75 5.76172V18.2383C3.75 19.3491 4.65085 20.25 5.76172 20.25H18.2383C19.3491 20.25 20.25 19.3491 20.25 18.2383V5.76172C20.25 4.65085 19.3491 3.75 18.2383 3.75H5.76172Z" fill="white"/>
<path d="M20.8996 6.25C21.3138 6.25 21.6496 6.58579 21.6496 7C21.6496 7.3797 21.3675 7.69349 21.0014 7.74315L20.8996 7.75H3.09961C2.6854 7.75 2.34961 7.41421 2.34961 7C2.34961 6.6203 2.63176 6.30651 2.99784 6.25685L3.09961 6.25H20.8996Z" fill="white"/>
<path d="M9.17969 9.94786C9.6434 9.68387 10.2123 9.6839 10.6777 9.94884L13.3457 11.4772C13.8161 11.7454 14.1067 12.2456 14.1064 12.7867V16.2135C14.1068 16.7552 13.8154 17.2558 13.3467 17.5221L10.6758 19.0514C10.212 19.3153 9.64321 19.3154 9.17774 19.0504L6.51172 17.5231C6.04005 17.255 5.74888 16.7535 5.75 16.2125V12.7877C5.74933 12.2458 6.03986 11.7453 6.51075 11.4772L9.17969 9.94786ZM7.25098 12.7828V16.2174L9.92188 17.7477L9.93262 17.7486L12.6055 16.2164L12.6064 12.7867C12.6064 12.7843 12.6047 12.7818 12.6016 12.7799L9.9336 11.2516L9.92383 11.2506L7.25098 12.7828Z" fill="white"/>
<path d="M9.92773 13.5586C10.3074 13.5586 10.6212 13.8407 10.6709 14.2068L10.6777 14.3086V18.4986C10.6777 18.9128 10.3419 19.2486 9.92773 19.2486C9.54804 19.2486 9.23424 18.9664 9.18458 18.6004L9.17773 18.4986V14.3086C9.17773 13.8944 9.51352 13.5586 9.92773 13.5586Z" fill="white"/>
<path d="M12.8381 11.6863C13.1926 11.4721 13.6537 11.5859 13.8679 11.9404C14.0642 12.2654 13.985 12.6799 13.6973 12.9117L13.6138 12.9702L10.3348 14.9512C10.1382 15.0699 9.90011 15.0911 9.68832 15.0133L9.58493 14.9661L6.22993 13.1171C5.86716 12.9172 5.73516 12.461 5.93508 12.0982C6.11835 11.7657 6.51692 11.6271 6.8615 11.7603L6.95394 11.8034L9.92994 13.4432L12.8381 11.6863Z" fill="white"/>
<path d="M20.9994 15.25C21.4136 15.25 21.7494 15.5858 21.7494 16C21.7494 16.3797 21.4672 16.6935 21.1011 16.7432L20.9994 16.75H13.3594C12.9452 16.75 12.6094 16.4142 12.6094 16C12.6094 15.6203 12.8915 15.3065 13.2576 15.2568L13.3594 15.25H20.9994Z" fill="white"/>
<path d="M6.5 15.25C6.91421 15.25 7.25 15.5858 7.25 16C7.25 16.3797 6.96785 16.6935 6.60177 16.7432L6.5 16.75H3C2.58579 16.75 2.25 16.4142 2.25 16C2.25 15.6203 2.53215 15.3065 2.89823 15.2568L3 15.25H6.5Z" fill="white"/>
<path d="M17.5 6.25C17.8797 6.25 18.1935 6.53215 18.2432 6.89823L18.25 7V9.46356C18.2502 9.85248 18.0697 10.2163 17.7664 10.4518L17.647 10.5339L16.388 11.2949C16.1835 11.4184 15.9347 11.4361 15.7176 11.3478L15.612 11.2949L14.3525 10.5335C14.0198 10.3321 13.8023 9.98904 13.7583 9.60833L13.75 9.464V7C13.75 6.58579 14.0858 6.25 14.5 6.25C14.8797 6.25 15.1935 6.53215 15.2432 6.89823L15.25 7L15.25 9.324L15.999 9.777L16.75 9.323L16.75 7C16.75 6.6203 17.0322 6.30651 17.3982 6.25685L17.5 6.25Z" fill="white"/>
</svg>
