<svg width="24" height="24" viewBox="0 0 24 24" fill="none" xmlns="http://www.w3.org/2000/svg">
<path d="M17.4088 2.30917C17.8616 2.18847 18.3439 2.25393 18.7477 2.49178C19.1516 2.72987 19.4435 3.1209 19.5572 3.57577L20.0719 5.63436C20.3038 6.5617 19.7484 7.50429 18.8248 7.75057L4.776 11.4967C4.37148 11.6043 3.95664 11.3598 3.8551 10.9537L3.33264 8.86385C2.96847 7.40673 3.84136 5.92664 5.2926 5.53964L17.4088 2.30917ZM17.7946 3.75839L5.67932 6.98885C5.01964 7.16477 4.62312 7.83823 4.7887 8.50057L5.12561 9.85018L18.4391 6.30038C18.5488 6.2709 18.6224 6.17254 18.6246 6.06405L18.6168 5.99862L18.1022 3.93905C18.0859 3.87407 18.0437 3.81876 17.986 3.78475C17.9283 3.75079 17.8592 3.74114 17.7946 3.75839Z" fill="white"/>
<path d="M18.999 10.0234C19.9655 10.0234 20.749 10.8069 20.749 11.7734V19.001C20.749 20.5198 19.5178 21.751 17.999 21.751H6.58203C5.06325 21.751 3.83203 20.5198 3.83203 19.001V10.7734C3.83203 10.3592 4.16782 10.0234 4.58203 10.0234H18.999ZM5.33105 11.5234L5.33203 19.001C5.33203 19.6913 5.89168 20.251 6.58203 20.251H17.999C18.6894 20.251 19.249 19.6913 19.249 19.001V11.7734C19.249 11.6354 19.1371 11.5234 18.999 11.5234H5.33105Z" fill="white"/>
<path d="M7.58203 4.94141C7.96173 4.94141 8.27552 5.22356 8.32518 5.58964L8.33203 5.69141V9.96897C8.33203 10.3832 7.99624 10.719 7.58203 10.719C7.20234 10.719 6.88854 10.4368 6.83888 10.0707L6.83203 9.96897V5.69141C6.83203 5.27719 7.16782 4.94141 7.58203 4.94141Z" fill="white"/>
<path d="M11.582 3.87891C11.9617 3.87891 12.2755 4.16106 12.3252 4.52714L12.332 4.62891V8.89686C12.332 9.31107 11.9962 9.64686 11.582 9.64686C11.2023 9.64686 10.8885 9.3647 10.8389 8.99863L10.832 8.89686V4.62891C10.832 4.21469 11.1678 3.87891 11.582 3.87891Z" fill="white"/>
<path d="M15.582 2.80859C15.9617 2.80859 16.2755 3.09075 16.3252 3.45682L16.332 3.55859V7.82654C16.332 8.24076 15.9962 8.57654 15.582 8.57654C15.2023 8.57654 14.8885 8.29439 14.8389 7.92831L14.832 7.82654V3.55859C14.832 3.14438 15.1678 2.80859 15.582 2.80859Z" fill="white"/>
</svg>
