<svg width="24" height="24" viewBox="0 0 24 24" fill="none" xmlns="http://www.w3.org/2000/svg">
<path d="M12.292 8.25781C13.7476 8.34397 15.0656 9.15564 15.7969 10.4209L16.7168 12.0117C17.2722 12.9726 18.0417 13.7929 18.9844 14.4219L19.1689 14.5547C20.1636 15.3114 20.7492 16.4903 20.749 17.7637L20.7432 17.9697C20.6248 20.0859 18.8714 21.7498 16.7432 21.75H16.3486C15.286 21.75 14.2671 21.3276 13.5156 20.5762L13.1768 20.2373C12.8647 19.9252 12.441 19.7496 12.0293 19.749L11.8682 19.7549C11.4741 19.7862 11.1034 19.9573 10.8232 20.2373L10.4844 20.5762C9.73293 21.3276 8.71309 21.75 7.65039 21.75H7.25684C5.04387 21.75 3.24965 19.956 3.25 17.7197L3.25781 17.4932C3.33567 16.2456 3.9919 15.104 5.03418 14.4092L5.09082 14.3711C5.98116 13.7775 6.72871 12.9937 7.2793 12.0762L8.30957 10.3594C9.09486 9.05077 10.509 8.25 12.0352 8.25L12.292 8.25781ZM11.8359 9.75684C10.914 9.8214 10.0756 10.3314 9.5957 11.1309L8.56543 12.8477C7.90057 13.9557 6.99803 14.9024 5.92285 15.6191L5.86621 15.6572C5.21412 16.092 4.80347 16.8065 4.75586 17.5635L4.75 17.7432C4.75006 19.1277 5.87233 20.25 7.25684 20.25H7.65039C8.3152 20.25 8.95272 19.9857 9.42285 19.5156L9.7627 19.1768C10.2952 18.6443 10.9994 18.3192 11.7783 18.2578L12 18.25C12.8391 18.2501 13.644 18.5834 14.2373 19.1768L14.5762 19.5156C15.0463 19.9857 15.6838 20.25 16.3486 20.25H16.7432C18.0743 20.2498 19.1719 19.2088 19.2451 17.9072L19.25 17.7432C19.25 16.9595 18.8827 16.2212 18.2793 15.7617L17.834 15.4482C16.8514 14.7321 16.0278 13.8176 15.418 12.7627L14.498 11.1709C14.0192 10.3427 13.1561 9.81127 12.2256 9.75586L12.0244 9.74902L11.8359 9.75684Z" fill="white"/>
<path d="M4.5 7.25C5.74264 7.25 6.75 8.25736 6.75 9.5C6.75 10.7426 5.74264 11.75 4.5 11.75C3.25736 11.75 2.25 10.7426 2.25 9.5C2.25 8.25736 3.25736 7.25 4.5 7.25ZM4.5 8.75C4.08579 8.75 3.75 9.08579 3.75 9.5C3.75 9.91421 4.08579 10.25 4.5 10.25C4.91421 10.25 5.25 9.91421 5.25 9.5C5.25 9.08579 4.91421 8.75 4.5 8.75Z" fill="white"/>
<path d="M19.5 7.25C20.7426 7.25 21.75 8.25736 21.75 9.5C21.75 10.7426 20.7426 11.75 19.5 11.75C18.2574 11.75 17.25 10.7426 17.25 9.5C17.25 8.25736 18.2574 7.25 19.5 7.25ZM19.5 8.75C19.0858 8.75 18.75 9.08579 18.75 9.5C18.75 9.91421 19.0858 10.25 19.5 10.25C19.9142 10.25 20.25 9.91421 20.25 9.5C20.25 9.08579 19.9142 8.75 19.5 8.75Z" fill="white"/>
<path d="M8.78516 2.25C10.0278 2.25 11.0352 3.25736 11.0352 4.5C11.0352 5.74264 10.0278 6.75 8.78516 6.75C7.54252 6.75 6.53516 5.74264 6.53516 4.5C6.53516 3.25736 7.54252 2.25 8.78516 2.25ZM8.78516 3.75C8.37094 3.75 8.03516 4.08579 8.03516 4.5C8.03516 4.91421 8.37094 5.25 8.78516 5.25C9.19937 5.25 9.53516 4.91421 9.53516 4.5C9.53516 4.08579 9.19937 3.75 8.78516 3.75Z" fill="white"/>
<path d="M15.2148 2.25C16.4575 2.25 17.4648 3.25736 17.4648 4.5C17.4648 5.74264 16.4575 6.75 15.2148 6.75C13.9722 6.75 12.9648 5.74264 12.9648 4.5C12.9648 3.25736 13.9722 2.25 15.2148 2.25ZM15.2148 3.75C14.8006 3.75 14.4648 4.08579 14.4648 4.5C14.4648 4.91421 14.8006 5.25 15.2148 5.25C15.6291 5.25 15.9648 4.91421 15.9648 4.5C15.9648 4.08579 15.6291 3.75 15.2148 3.75Z" fill="white"/>
</svg>
