<svg width="20" height="22" viewBox="0 0 20 22" fill="none" xmlns="http://www.w3.org/2000/svg">
<path d="M14.9901 12.75C14.9901 9.84991 12.6405 7.50004 9.74307 7.5C6.84561 7.5 4.496 9.84989 4.496 12.75C4.496 15.1494 5.24849 17.3699 6.52823 19.1963C6.76589 19.5355 6.68372 20.0035 6.34463 20.2412C6.00545 20.4789 5.53744 20.3967 5.29971 20.0576C3.84953 17.9881 2.996 15.4685 2.996 12.75C2.996 9.02211 6.01653 6 9.74307 6C13.4696 6.00004 16.4901 9.02214 16.4901 12.75C16.4901 13.1642 16.1543 13.4999 15.7401 13.5C15.3259 13.5 14.9901 13.1642 14.9901 12.75Z" fill="white"/>
<path d="M8.995 12.75C8.995 12.3358 9.33079 12 9.745 12C10.1592 12 10.495 12.3358 10.495 12.75C10.495 15.6501 12.8446 18 15.7421 18C15.8237 18 15.8772 17.9935 16.0233 17.9854C16.4369 17.9624 16.7904 18.2788 16.8134 18.6924C16.8363 19.106 16.5199 19.4594 16.1063 19.4824C16.0364 19.4863 15.8782 19.5 15.7421 19.5C12.0155 19.5 8.995 16.4779 8.995 12.75Z" fill="white"/>
<path d="M11.9941 12.75C11.9941 11.5071 10.9867 10.5001 9.74512 10.5C8.50349 10.5 7.49609 11.5071 7.49609 12.75C7.49609 15.7052 9.04995 18.298 11.3877 19.7559C11.7392 19.975 11.8461 20.4376 11.627 20.7891C11.4077 21.1403 10.9451 21.2474 10.5938 21.0283C7.83568 19.3082 5.99609 16.2446 5.99609 12.75C5.99609 10.6789 7.67474 9 9.74512 9C11.8154 9.00006 13.4941 10.679 13.4941 12.75C13.4941 13.9929 14.5015 15 15.7432 15C16.9847 14.9999 17.9922 13.9929 17.9922 12.75C17.9922 8.19297 14.2996 4.50005 9.74609 4.5C5.19258 4.5 1.5 8.19294 1.5 12.75C1.5 13.8018 1.61805 14.827 1.83496 15.8164C1.9236 16.221 1.66727 16.6213 1.2627 16.71C0.8581 16.7987 0.457855 16.5423 0.369141 16.1377C0.130051 15.0471 0 13.9142 0 12.75C0 7.36506 4.36361 3 9.74609 3C15.1285 3.00005 19.4922 7.36509 19.4922 12.75C19.4922 14.821 17.8135 16.4999 15.7432 16.5C13.6728 16.5 11.9941 14.8211 11.9941 12.75Z" fill="white"/>
<path d="M9.74405 0C13.3077 1.37382e-05 16.4991 1.57194 18.6796 4.04883C18.9532 4.35973 18.9231 4.83374 18.6122 5.10742C18.3013 5.38069 17.8272 5.35076 17.5536 5.04004C15.6441 2.87095 12.8563 1.50001 9.74405 1.5C6.63176 1.5 3.84302 2.87094 1.9335 5.04004C1.65988 5.35033 1.18664 5.38051 0.875883 5.10742C0.56498 4.83373 0.534808 4.35973 0.8085 4.04883C2.98898 1.57193 6.18034 0 9.74405 0Z" fill="white"/>
</svg>
