<svg width="22" height="21" viewBox="0 0 22 21" fill="none" xmlns="http://www.w3.org/2000/svg">
<path d="M16.7498 10C17.1295 9.99999 17.4433 10.2821 17.493 10.6482L17.4999 10.75L17.5 17.2848C17.5136 18.5239 16.6894 19.6161 15.4691 19.9492C12.3659 20.6836 9.13413 20.6836 6.00587 19.9429C4.86749 19.6317 4.06569 18.6262 4.0037 17.4679L4 17.2931L4.00014 10.75C4.00015 10.3358 4.33594 9.99999 4.75016 10C5.12985 10 5.44364 10.2822 5.4933 10.6482L5.50014 10.75L5.49995 17.3014C5.4938 17.8582 5.86421 18.3491 6.37634 18.4896C9.2524 19.1701 12.2476 19.1701 15.0986 18.4959C15.5945 18.3604 15.9482 17.9317 15.9948 17.4221L16 17.2931L15.9999 10.75C15.9999 10.3358 16.3356 10 16.7498 10Z" fill="white"/>
<path d="M12.9216 0C13.5846 0 14.223 0.239449 14.721 0.670458L14.8661 0.80546L16.159 2.098L17.9259 2.70744C18.7011 2.9749 19.3131 3.5729 19.601 4.33384L19.6616 4.51226L21.2973 9.93087C21.4118 10.31 21.4783 10.7016 21.4955 11.0965L21.4992 11.3931L21.4164 15.7829C21.3994 16.6862 20.7002 17.4191 19.8157 17.4937L19.6667 17.5H16.75C16.3358 17.5 16 17.1642 16 16.75C16 16.3703 16.2822 16.0565 16.6482 16.0068L16.75 16H19.6667C19.7835 16 19.8819 15.9199 19.9092 15.8112L19.9167 15.7547L19.9995 11.3649C20.0042 11.1109 19.9792 10.8575 19.9251 10.6099L19.8613 10.3644L18.2256 4.94576C18.1225 4.6042 17.8791 4.32512 17.5598 4.17536L17.4366 4.1254L15.5054 3.45898C15.4337 3.43424 15.3663 3.39884 15.3056 3.35415L15.2197 3.28033L13.8055 1.86612C13.6045 1.66519 13.3422 1.53972 13.0626 1.50798L12.9216 1.5H8.57843C8.29427 1.5 8.02008 1.59676 7.79992 1.77203L7.69454 1.86612L6.28033 3.28033C6.2267 3.33396 6.1654 3.37899 6.09863 3.41405L5.99464 3.45898L4.06334 4.1254C3.72606 4.24178 3.4567 4.49584 3.31953 4.82072L3.27442 4.94574L1.6387 10.3645C1.56528 10.6076 1.52071 10.8583 1.5057 11.1113L1.50058 11.3649L1.58334 15.7547C1.58554 15.8715 1.66751 15.9683 1.77668 15.9936L1.83329 16H4.75C5.16421 16 5.5 16.3358 5.5 16.75C5.5 17.1297 5.21785 17.4435 4.85177 17.4932L4.75 17.5H1.83329C0.929841 17.5 0.183967 16.8147 0.092672 15.9319L0.0836024 15.783L0.000842069 11.3932C-0.00661494 10.9972 0.0354869 10.6022 0.12588 10.2175L0.202709 9.93094L1.83843 4.51224C2.07542 3.72725 2.64906 3.09227 3.39816 2.77495L3.57407 2.70744L5.34 2.098L6.63388 0.805461C7.10272 0.336617 7.72342 0.0545464 8.38037 0.00713557L8.57843 0H12.9216Z" fill="white"/>
<path d="M15.0336 2.53103C15.1546 2.1349 15.5739 1.91189 15.97 2.03294C16.3331 2.14389 16.5508 2.50542 16.4913 2.87003L16.4681 2.96936L15.7678 5.26129C15.6299 5.71247 15.3157 6.08887 14.8965 6.30515C14.5296 6.4944 14.1095 6.54703 13.7104 6.45729L13.5408 6.41009L11.0443 5.57795C10.6513 5.44697 10.439 5.02223 10.5699 4.62928C10.69 4.26906 11.0569 4.06059 11.4199 4.12924L11.5186 4.15492L14.0151 4.98706C14.0791 5.00838 14.1489 5.00297 14.2088 4.97207C14.2487 4.95148 14.282 4.92071 14.3056 4.88339L14.3333 4.82295L15.0336 2.53103Z" fill="white"/>
<path d="M5.53103 2.03294C5.89416 1.92198 6.27671 2.10012 6.43118 2.43571L6.46746 2.53103L7.16777 4.82295C7.18747 4.8874 7.23235 4.94118 7.29225 4.97207C7.33218 4.99267 7.37652 5.00194 7.4206 4.99952L7.48592 4.98706L9.98243 4.15492C10.3754 4.02394 10.8001 4.23632 10.9311 4.62928C11.0512 4.98949 10.8827 5.3764 10.5511 5.53928L10.4568 5.57795L7.96024 6.41009C7.51268 6.55928 7.02384 6.52144 6.60457 6.30515C6.23188 6.1129 5.94223 5.79413 5.78563 5.40879L5.73325 5.26128L5.03294 2.96936C4.91189 2.57323 5.1349 2.15398 5.53103 2.03294Z" fill="white"/>
<path d="M13.0209 0.508792C13.234 0.153601 13.6947 0.0384129 14.0499 0.251513C14.3755 0.446855 14.4994 0.850243 14.3537 1.18971L14.3072 1.2805L11.3932 6.1375C11.1213 6.59066 10.4902 6.62087 10.1704 6.22813L10.1069 6.1375L7.19292 1.2805C6.97982 0.925305 7.09501 0.464614 7.4502 0.251513C7.77579 0.0561712 8.19003 0.136682 8.42095 0.425046L8.47918 0.508792L10.7501 4.29264L13.0209 0.508792Z" fill="white"/>
</svg>
