<svg width="16" height="20" viewBox="0 0 16 20" fill="none" xmlns="http://www.w3.org/2000/svg">
<path d="M3.44925 0.147944C6.31298 -0.0493199 9.18708 -0.0493093 12.0508 0.147944L12.2451 0.168452C14.1057 0.412067 15.5072 1.99857 15.5 3.88525V15.6118C15.5077 17.5667 14.0073 19.1971 12.0508 19.352C9.18705 19.5493 6.31289 19.5499 3.44144 19.352C1.49278 19.1975 -0.00762615 17.5666 2.91627e-05 15.6147V3.88818C-0.00738382 1.93354 1.49299 0.302944 3.44925 0.147944ZM11.9483 1.64501C9.15324 1.45248 6.34792 1.45209 3.56058 1.64404C2.39424 1.73644 1.49567 2.71238 1.50003 3.88525V15.6177C1.49544 16.7878 2.39398 17.7641 3.55276 17.856C6.34784 18.0485 9.15308 18.0489 11.9405 17.8569C13.1068 17.7644 14.0046 16.7877 14 15.6147V3.88232C14.0044 2.7125 13.1067 1.73701 11.9483 1.64501Z" fill="white"/>
<path d="M9.24245 13.8755L9.35857 13.8821C9.51179 13.9011 9.65732 13.9604 9.78021 14.0538L9.86789 14.1303C10.0338 14.2955 10.1265 14.5205 10.1252 14.7504C10.1252 15.2332 9.73416 15.6248 9.25136 15.6254C8.76857 15.6261 8.37649 15.2355 8.3752 14.7528C8.37401 14.3071 8.70623 13.9383 9.13707 13.8827L9.24245 13.8755Z" fill="white"/>
<path d="M11.2424 11.8755L11.3586 11.8821C11.5118 11.9011 11.6573 11.9604 11.7802 12.0538L11.8679 12.1303C12.0338 12.2955 12.1265 12.5205 12.1252 12.7504C12.1252 13.2332 11.7342 13.6248 11.2514 13.6254C10.7686 13.6261 10.3765 13.2355 10.3752 12.7528C10.374 12.3071 10.7062 11.9383 11.1371 11.8827L11.2424 11.8755Z" fill="white"/>
<path d="M5.2502 11.7504C5.62989 11.7504 5.94369 12.0326 5.99335 12.3987L6.0002 12.5004V15.0004C6.0002 15.4146 5.66441 15.7504 5.2502 15.7504C4.8705 15.7504 4.55671 15.4683 4.50704 15.1022L4.5002 15.0004V12.5004C4.5002 12.0862 4.83598 11.7504 5.2502 11.7504Z" fill="white"/>
<path d="M6.5002 13.0004C6.91441 13.0004 7.2502 13.3362 7.2502 13.7504C7.2502 14.1301 6.96804 14.4439 6.60197 14.4936L6.5002 14.5004H4.0002C3.58598 14.5004 3.2502 14.1646 3.2502 13.7504C3.2502 13.3707 3.53235 13.0569 3.89843 13.0073L4.0002 13.0004H6.5002Z" fill="white"/>
<path d="M10.7502 3.00043C11.7167 3.00043 12.5002 3.78393 12.5002 4.75043V8.75043C12.5002 9.71693 11.7167 10.5004 10.7502 10.5004H4.7502C3.7837 10.5004 3.0002 9.71693 3.0002 8.75043V4.75043C3.0002 3.78393 3.7837 3.00043 4.7502 3.00043H10.7502ZM4.7502 4.50043C4.61213 4.50043 4.5002 4.61236 4.5002 4.75043V8.75043C4.5002 8.8885 4.61213 9.00043 4.7502 9.00043H10.7502C10.8883 9.00043 11.0002 8.8885 11.0002 8.75043V4.75043C11.0002 4.61236 10.8883 4.50043 10.7502 4.50043H4.7502Z" fill="white"/>
</svg>
