<svg width="559" height="367" viewBox="0 0 559 367" fill="none" xmlns="http://www.w3.org/2000/svg">
<path d="M295.857 193.717H360.531V212.19H319.17V235.244H353.425V250.996H319.17V287.94H295.857V193.717Z" fill="white"/>
<path d="M368.897 251.424V193.717H392.209V250.565C392.209 263.452 400.879 269.896 413.247 269.896C425.614 269.896 434.284 263.452 434.284 250.565V193.717H454.893V251.423C454.893 275.478 438.123 289.369 411.967 289.369C385.81 289.369 368.897 275.481 368.897 251.424Z" fill="white"/>
<path d="M467.114 193.717H500.659L537.331 257.007H537.473L536.762 193.717H558.652V287.935H531.079L488.578 214.909H488.436L489.007 287.936H467.114V193.717Z" fill="white"/>
<path d="M294.941 127.803H312.577L331.858 161.078H331.933L331.559 127.803H343.071V177.34H328.569L306.224 138.946H306.15L306.45 177.34H294.937L294.941 127.803Z" fill="white"/>
<path d="M383.27 167.255H363.616L360.254 177.342H347.698L366.679 127.803H381.924L400.906 177.34H386.632L383.27 167.255ZM380.729 159.576L373.48 137.895H373.33L366.156 159.576H380.729Z" fill="white"/>
<path d="M402.242 158.145V127.803H414.498V157.693C414.498 164.467 419.057 167.854 425.558 167.854C432.058 167.854 436.617 164.467 436.617 157.693V127.803H447.454V158.143C447.454 170.791 438.634 178.094 424.884 178.094C411.133 178.094 402.242 170.794 402.242 158.145Z" fill="white"/>
<path d="M453.879 127.803H466.135V152.421H466.285L487.508 127.803H502.156L481.979 150.238L503.576 177.34H487.657L473.609 157.994L466.136 165.897V177.34H453.88L453.879 127.803Z" fill="white"/>
<path d="M541.031 167.253H521.375L518.012 177.34H505.458L524.438 127.803H539.683L558.665 177.34H544.391L541.031 167.253ZM538.49 159.574L531.241 137.893H531.092L523.921 159.574H538.49Z" fill="white"/>
<path d="M0.501579 323.788V331.18H19.8945V331.295L0.160471 355.304V361.485H31.2121V354.093H12.0465V353.979L31.3836 330.546V323.785L0.501579 323.788Z" fill="white"/>
<path d="M60.7787 353.808H45.8214L43.2621 361.487H33.7073L48.1507 323.785H59.7522L74.1975 361.485H63.3354L60.7787 353.808ZM58.8458 347.964L53.3289 331.464H53.2152L47.7524 347.965L58.8458 347.964Z" fill="white"/>
<path d="M69.8892 323.785H80.0691L86.7236 350.14H86.8938L93.7185 323.785H102.989L109.756 350.14H109.927L116.354 323.785H125.565L114.588 361.482H104.18L97.8671 336.845H97.7013L91.0449 361.482H80.8091L69.8892 323.785Z" fill="white"/>
<path d="M127.719 348.529H136.023C136.023 352.596 137.675 355.233 143.929 355.233C150.242 355.233 151.663 352.941 151.663 350.534C151.725 349.838 151.543 349.142 151.148 348.566C150.754 347.991 150.172 347.572 149.504 347.383C146.66 346.658 143.772 346.122 140.859 345.779C137.158 345.203 133.409 344.462 131.248 343.032C128.859 341.486 127.608 338.85 127.608 335.241C127.608 328.138 133.125 323.21 143.933 323.21C155.818 323.21 159.686 328.195 159.686 336.675H151.434C151.434 332.378 149.217 330.029 144.099 330.029C139.034 330.029 136.876 331.92 136.876 334.445C136.876 336.279 137.384 337.31 138.696 337.878C140.118 338.509 144.042 339.139 147.226 339.654C151.435 340.341 154.62 341.028 156.838 342.232C159.51 343.665 160.928 346.353 160.928 349.911C160.928 356.329 157.345 362.057 143.983 362.057C131.128 362.057 127.722 355.466 127.722 348.536" fill="white"/>
<path d="M163.714 355.296L183.449 331.291V331.176H164.055V323.785H194.937V330.546L175.6 353.978V354.093H194.762V361.476H163.714V355.296Z" fill="white"/>
<path d="M198.874 323.785H225.376V331.177H208.206V339.656H221.513V345.385H208.206V354.094H225.893V361.482H198.874V323.785Z" fill="white"/>
<path d="M369.26 323.785H386.72C396.615 323.785 401.965 327.906 401.965 335.014C401.965 339.827 399.919 342.863 396.391 343.895V344.01C400.092 344.87 401.738 347.85 401.738 352.088V361.482H392.407V352.371C392.407 348.937 391.156 347.444 387.63 347.444H378.588V361.482H369.261L369.26 323.785ZM387.122 341.775C391.047 341.775 393.037 339.999 393.037 336.504C393.037 333.181 390.993 331.176 386.667 331.176H378.591V341.771L387.122 341.775Z" fill="white"/>
<path d="M432.277 353.806H417.32L414.76 361.485H405.206L419.652 323.785H431.253L445.698 361.485H434.836L432.277 353.806ZM430.344 347.962L424.827 331.462H424.713L419.25 347.962H430.344Z" fill="white"/>
<path d="M448.094 355.296L467.829 331.291V331.176H448.435V323.785H479.316V330.546L459.98 353.978V354.093H479.146V361.476H448.095L448.094 355.296Z" fill="white"/>
<path d="M483.214 323.785H509.716V331.177H492.541V339.656H505.849V345.385H492.541V354.094H510.225V361.482H483.211L483.214 323.785Z" fill="white"/>
<path d="M514.123 323.785H528.74L536.759 348.88H536.872L544.835 323.785H559V361.482H549.673L549.901 331.862H549.786L540.346 361.482H532.327L522.83 331.862H522.715L522.886 361.482H514.127L514.123 323.785Z" fill="white"/>
<path d="M296.671 330.392L305.013 339.17C310.205 344.587 314.839 347.762 318.55 347.762C324.296 347.762 327.633 342.906 327.633 334.501V321.613H345.8V337.862C345.8 356.167 336.16 367 319.843 367C311.5 367 303.714 362.891 297.78 356.729L289.256 347.951C284.25 342.907 279.43 339.732 275.719 339.732C270.158 339.732 266.821 344.589 266.821 352.806V365.694H248.654V349.44C248.654 331.136 258.295 320.303 274.611 320.303C282.953 320.303 290.74 324.227 296.674 330.389" fill="white"/>
<path d="M270.023 232.127C271.285 232.127 273.388 232.127 276.753 231.706L276.332 283.524C273.388 284.366 268.762 285.209 262.453 285.209C235.534 285.209 209.457 277.626 183.801 261.196C160.248 277.205 133.329 285.63 103.888 285.63C34.0684 285.63 0 243.502 0 190.42C0 155.032 20.1887 120.487 69.3985 114.168C62.669 96.0526 59.7248 81.3077 59.7248 69.9331C59.7248 30.7537 84.9606 0 140.479 0C193.895 0 219.552 29.0686 219.552 68.2479C219.552 109.112 194.316 136.075 146.788 138.602L146.368 139.024C156.883 155.875 170.762 172.726 186.325 187.471C199.363 169.777 209.457 148.713 216.187 125.121H271.285C260.35 161.352 245.208 193.369 226.281 219.067C241.843 227.914 256.985 232.127 270.023 232.127ZM144.265 47.1837C129.965 47.1837 123.235 58.5584 123.235 74.5672C123.235 84.678 125.759 94.3675 129.965 105.742C157.724 102.372 165.295 91.4185 165.295 71.6182C165.295 58.1371 158.565 47.1837 144.265 47.1837ZM62.669 189.156C62.669 215.276 78.2311 235.497 108.093 235.497C120.291 235.497 132.068 232.97 142.582 227.493C122.814 207.693 103.467 184.101 88.746 156.717H87.0636C70.6603 159.666 62.669 171.884 62.669 189.156Z" fill="white"/>
</svg>
