<svg width="24" height="24" viewBox="0 0 24 24" fill="none" xmlns="http://www.w3.org/2000/svg">
<path d="M8.16995 21.0567C6.80495 19.1087 6.00195 16.7387 6.00195 14.1797C6.00195 10.8657 8.68695 8.17969 11.999 8.17969C15.311 8.17969 17.996 10.8657 17.996 14.1797" stroke="white" stroke-width="1.5" stroke-linecap="round" stroke-linejoin="round"/>
<path d="M18.32 20.1637C18.212 20.1697 18.106 20.1797 17.997 20.1797C14.685 20.1797 12 17.4937 12 14.1797" stroke="white" stroke-width="1.5" stroke-linecap="round" stroke-linejoin="round"/>
<path d="M13.2469 21.8217C10.6989 20.2327 9.00186 17.4047 9.00186 14.1797C9.00186 12.5227 10.3449 11.1797 12.0009 11.1797C13.6569 11.1797 14.9999 12.5227 14.9999 14.1797C14.9999 15.8367 16.3429 17.1797 17.9989 17.1797C19.6549 17.1797 20.9979 15.8367 20.9979 14.1797C20.9979 9.20869 16.9699 5.17969 12.0019 5.17969C7.03386 5.17969 3.00586 9.20869 3.00586 14.1797C3.00586 15.2877 3.12986 16.3667 3.35786 17.4067" stroke="white" stroke-width="1.5" stroke-linecap="round" stroke-linejoin="round"/>
<path d="M20.373 5.97369C18.328 3.65069 15.338 2.17969 12 2.17969C8.66195 2.17969 5.67195 3.65069 3.62695 5.97369" stroke="white" stroke-width="1.5" stroke-linecap="round" stroke-linejoin="round"/>
</svg>
