<svg width="24" height="24" viewBox="0 0 24 24" fill="none" xmlns="http://www.w3.org/2000/svg">
<path d="M17.9998 12.25C18.3795 12.25 18.6933 12.5321 18.743 12.8982L18.7499 13L18.75 19.5348C18.7636 20.7739 17.9394 21.8661 16.7191 22.1992C13.6159 22.9336 10.3841 22.9336 7.25587 22.1929C6.11749 21.8817 5.31569 20.8762 5.2537 19.7179L5.25 19.5431L5.25014 13C5.25015 12.5858 5.58594 12.25 6.00016 12.25C6.37985 12.25 6.69364 12.5322 6.7433 12.8982L6.75014 13L6.74995 19.5514C6.7438 20.1082 7.11421 20.5991 7.62634 20.7396C10.5024 21.4201 13.4976 21.4201 16.3486 20.7459C16.8445 20.6104 17.1982 20.1817 17.2448 19.6721L17.25 19.5431L17.2499 13C17.2499 12.5858 17.5856 12.25 17.9998 12.25Z" fill="white"/>
<path d="M14.1716 2.25C14.8346 2.25 15.473 2.48945 15.971 2.92046L16.1161 3.05546L17.409 4.348L19.1759 4.95744C19.9511 5.2249 20.5631 5.8229 20.851 6.58384L20.9116 6.76226L22.5473 12.1809C22.6618 12.56 22.7283 12.9516 22.7455 13.3465L22.7492 13.6431L22.6664 18.0329C22.6494 18.9362 21.9502 19.6691 21.0657 19.7437L20.9167 19.75H18C17.5858 19.75 17.25 19.4142 17.25 19C17.25 18.6203 17.5322 18.3065 17.8982 18.2568L18 18.25H20.9167C21.0335 18.25 21.1319 18.1699 21.1592 18.0612L21.1667 18.0047L21.2495 13.6149C21.2542 13.3609 21.2292 13.1075 21.1751 12.8599L21.1113 12.6144L19.4756 7.19576C19.3725 6.8542 19.1291 6.57512 18.8098 6.42536L18.6866 6.3754L16.7554 5.70898C16.6837 5.68424 16.6163 5.64884 16.5556 5.60415L16.4697 5.53033L15.0555 4.11612C14.8545 3.91519 14.5922 3.78972 14.3126 3.75798L14.1716 3.75H9.82843C9.54427 3.75 9.27008 3.84676 9.04992 4.02203L8.94454 4.11612L7.53033 5.53033C7.4767 5.58396 7.4154 5.62899 7.34863 5.66405L7.24464 5.70898L5.31334 6.3754C4.97606 6.49178 4.7067 6.74584 4.56953 7.07072L4.52442 7.19574L2.8887 12.6145C2.81528 12.8576 2.77071 13.1083 2.7557 13.3613L2.75058 13.6149L2.83334 18.0047C2.83554 18.1215 2.91751 18.2183 3.02668 18.2436L3.08329 18.25H6C6.41421 18.25 6.75 18.5858 6.75 19C6.75 19.3797 6.46785 19.6935 6.10177 19.7432L6 19.75H3.08329C2.17984 19.75 1.43397 19.0647 1.34267 18.1819L1.3336 18.033L1.25084 13.6432C1.24339 13.2472 1.28549 12.8522 1.37588 12.4675L1.45271 12.1809L3.08843 6.76224C3.32542 5.97725 3.89906 5.34227 4.64816 5.02495L4.82407 4.95744L6.59 4.348L7.88388 3.05546C8.35272 2.58662 8.97342 2.30455 9.63037 2.25714L9.82843 2.25H14.1716Z" fill="white"/>
<path d="M16.2836 4.78103C16.4046 4.3849 16.8239 4.16189 17.22 4.28294C17.5831 4.39389 17.8008 4.75542 17.7413 5.12003L17.7181 5.21936L17.0178 7.51129C16.8799 7.96247 16.5657 8.33887 16.1465 8.55515C15.7796 8.7444 15.3595 8.79703 14.9604 8.70729L14.7908 8.66009L12.2943 7.82795C11.9013 7.69697 11.689 7.27223 11.8199 6.87928C11.94 6.51906 12.3069 6.31059 12.6699 6.37924L12.7686 6.40492L15.2651 7.23706C15.3291 7.25838 15.3989 7.25297 15.4588 7.22207C15.4987 7.20147 15.532 7.17071 15.5556 7.13339L15.5833 7.07295L16.2836 4.78103Z" fill="white"/>
<path d="M6.78103 4.28294C7.14416 4.17198 7.52671 4.35012 7.68118 4.68571L7.71746 4.78103L8.41777 7.07295C8.43747 7.1374 8.48235 7.19118 8.54225 7.22207C8.58218 7.24267 8.62652 7.25194 8.6706 7.24952L8.73592 7.23706L11.2324 6.40492C11.6254 6.27394 12.0501 6.48632 12.1811 6.87928C12.3012 7.23949 12.1327 7.6264 11.8011 7.78928L11.7068 7.82795L9.21024 8.66009C8.76268 8.80928 8.27384 8.77144 7.85457 8.55515C7.48188 8.3629 7.19223 8.04413 7.03563 7.65879L6.98325 7.51128L6.28294 5.21936C6.16189 4.82323 6.3849 4.40398 6.78103 4.28294Z" fill="white"/>
<path d="M14.2709 2.75879C14.484 2.4036 14.9447 2.28841 15.2999 2.50151C15.6255 2.69686 15.7494 3.10024 15.6037 3.43971L15.5572 3.5305L12.6432 8.3875C12.3713 8.84066 11.7402 8.87087 11.4204 8.47813L11.3569 8.3875L8.44292 3.5305C8.22982 3.17531 8.34501 2.71461 8.7002 2.50151C9.02579 2.30617 9.44003 2.38668 9.67095 2.67505L9.72918 2.75879L12.0001 6.54264L14.2709 2.75879Z" fill="white"/>
</svg>
