<svg width="24" height="24" viewBox="0 0 24 24" fill="none" xmlns="http://www.w3.org/2000/svg">
<path d="M6 14.25C6.96621 14.2503 7.74965 15.0335 7.75 16V18C7.74965 18.9662 6.96648 19.7497 6 19.75H4C3.03379 19.7497 2.25035 18.9665 2.25 18V16C2.25035 15.0338 3.03352 14.2503 4 14.25H6ZM4 15.75C3.86192 15.7502 3.75005 15.8622 3.75 16V18C3.7502 18.1381 3.86216 18.25 4 18.25H6C6.13808 18.2498 6.24995 18.1378 6.25 18V16C6.2498 15.8619 6.13784 15.75 6 15.75H4Z" fill="white"/>
<path d="M18 2.25C18.9662 2.25035 19.7497 3.03352 19.75 4V6C19.7497 6.96621 18.9665 7.74965 18 7.75H16C15.0338 7.74965 14.2503 6.96648 14.25 6V4C14.2503 3.03379 15.0335 2.25035 16 2.25H18ZM16 3.75C15.8619 3.7502 15.75 3.86216 15.75 4V6C15.7502 6.13808 15.8622 6.24995 16 6.25H18C18.1381 6.2498 18.25 6.13784 18.25 6V4C18.2498 3.86192 18.1378 3.75005 18 3.75H16Z" fill="white"/>
<path d="M15 4.25C15.4142 4.25 15.75 4.58579 15.75 5C15.75 5.3797 15.4678 5.69349 15.1018 5.74315L15 5.75H12.5C8.8514 5.75 5.87892 8.64485 5.75408 12.263L5.75 12.5V15C5.75 15.4142 5.41421 15.75 5 15.75C4.6203 15.75 4.30651 15.4678 4.25685 15.1018L4.25 15V12.5C4.25 8.02803 7.80812 4.3871 12.2478 4.25378L12.5 4.25H15Z" fill="white"/>
<path d="M11.801 11.799C12.286 11.314 12.9975 11.1326 13.6554 11.3263L20.4045 13.3127C21.1651 13.5361 21.7027 14.2145 21.7472 15.006C21.7916 15.7974 21.3336 16.5315 20.6027 16.839L18.0969 17.8918C18.0068 17.9296 17.9345 18.0019 17.8967 18.0919L16.841 20.6017C16.5333 21.3322 15.7994 21.7899 15.008 21.7453C14.2168 21.7005 13.5392 21.1635 13.3156 20.4035L11.3283 13.6535C11.1345 12.9954 11.3159 12.284 11.801 11.799ZM13.2316 12.7658C13.1003 12.7271 12.9583 12.7628 12.8615 12.8595C12.7647 12.9563 12.7291 13.0983 12.7677 13.2296L14.7541 19.9796C14.7988 20.1316 14.9348 20.2393 15.0929 20.2482C15.251 20.257 15.3979 20.1652 15.4592 20.0197L16.5148 17.5099C16.7048 17.0584 17.0642 16.6987 17.5158 16.5089L20.0217 15.4562C20.1675 15.3948 20.259 15.248 20.2502 15.09C20.2413 14.932 20.1338 14.7969 19.9816 14.7521L13.2316 12.7658Z" fill="white"/>
</svg>
