<svg width="20" height="20" viewBox="0 0 20 20" fill="none" xmlns="http://www.w3.org/2000/svg">
<path d="M7.30873 6.9483C7.60162 6.65541 8.0765 6.65541 8.36939 6.9483L12.554 11.1329C12.8469 11.4258 12.8469 11.9007 12.554 12.1936L6.33162 18.416C4.94047 19.8071 2.70702 19.8682 1.22789 18.5506L1.08633 18.416C-0.36211 16.9675 -0.36211 14.6192 1.08633 13.1707L7.30873 6.9483ZM2.14699 14.2314C1.32185 15.0565 1.28567 16.3723 2.02546 17.2269L2.1318 17.3401L2.24228 17.4451C3.1127 18.2199 4.44264 18.1836 5.27097 17.3553L10.9623 11.6626L7.83837 8.5386L2.14699 14.2314Z" fill="white"/>
<path d="M11.1858 0.027676L11.2922 0.0423245C13.2303 0.31967 15.0371 1.18155 16.4826 2.52084L16.7375 2.76596C18.21 4.23872 19.165 6.14948 19.4602 8.21225L19.4748 8.31674C19.6794 9.74732 18.7306 11.0885 17.3137 11.3714L12.1701 12.4007C11.9243 12.4499 11.6697 12.3729 11.4924 12.1956L7.30783 8.0101C7.13055 7.83282 7.05364 7.57918 7.10275 7.33334L8.13107 2.18979C8.41404 0.772674 9.75524 -0.17682 11.1858 0.027676ZM10.9738 1.51303C10.3316 1.42118 9.72886 1.84726 9.60178 2.48373L8.65158 7.23275L12.2688 10.8499L17.0197 9.90072C17.6134 9.78218 18.0247 9.24994 18.0022 8.65658L17.9904 8.52865L17.9748 8.42318C17.7257 6.68269 16.9197 5.06953 15.6867 3.83627L15.4533 3.61166C14.2417 2.48908 12.7156 1.76166 11.0803 1.52768L10.9738 1.51303Z" fill="white"/>
<path d="M5.22241 13.2198C5.51531 12.9269 5.99018 12.9269 6.28307 13.2198C6.54934 13.4861 6.57355 13.9028 6.35569 14.1964L6.28307 14.2805L4.28307 16.2805C3.99018 16.5734 3.51531 16.5734 3.22241 16.2805C2.95615 16.0142 2.93194 15.5976 3.1498 15.304L3.22241 15.2198L5.22241 13.2198Z" fill="white"/>
</svg>
