<svg width="347" height="141" viewBox="0 0 347 141" fill="none" xmlns="http://www.w3.org/2000/svg">
<path d="M176.263 15.5123H156.925V0H213.277V15.5123H194.046V68.971H176.263V15.5123Z" fill="white"/>
<path d="M221.753 0H272.312V14.992H239.536V26.4692H271.589V41.5628H239.536V53.9726H272.312V68.9646H221.753V0Z" fill="white"/>
<path d="M282.653 0H321.735C335.382 0 341.898 8.88864 341.898 17.5742C341.898 26.2599 336.626 31.9445 330.11 33.3974C337.451 34.5331 343.243 41.5628 343.243 50.2484C343.243 60.279 336.524 68.9646 322.979 68.9646H282.653V0ZM317.707 26.6786C321.323 26.6786 323.804 24.0964 323.804 20.683C323.804 17.2697 321.323 14.789 317.707 14.789H300.437V26.6786H317.707ZM318.322 54.182C322.56 54.182 325.149 51.5998 325.149 47.8755C325.149 44.3607 322.668 41.3597 318.322 41.3597H300.437V54.182H318.322Z" fill="white"/>
<path d="M68.8251 0V16.1911H110.001L68.8251 57.3669L11.4518 0H0V72.1749L68.8251 141L137.65 72.1749V0H68.8251ZM121.453 65.4688L68.8251 118.096L16.1911 65.4688V27.643L68.8187 80.2705L121.446 27.643V65.4688H121.453Z" fill="white"/>
<path d="M156.988 88.493H174.638V93.0547H162.298V98.4793H174.378V103.041H162.298V108.84H174.638V113.44H156.988V88.493Z" fill="white"/>
<path d="M178.788 88.493H188.628C196.444 88.493 201.869 93.4671 201.869 100.985C201.869 108.504 196.444 113.44 188.628 113.44H178.788V88.493ZM188.628 108.764C193.564 108.764 196.444 105.211 196.444 100.985C196.444 96.7599 193.754 93.1689 188.628 93.1689H184.104V108.764H188.628Z" fill="white"/>
<path d="M205.637 88.493H211.024V103.301C211.024 106.778 212.934 109.176 216.823 109.176C220.712 109.176 222.546 106.784 222.546 103.301V88.493H227.932V103.453C227.932 109.658 224.379 113.89 216.823 113.89C209.267 113.89 205.637 109.627 205.637 103.491V88.493Z" fill="white"/>
<path d="M240.114 103.454L238.172 105.769V113.44H232.862V88.4933H238.172V99.6406L246.998 88.4933H253.545L243.635 100.199L254.218 113.44H247.67L240.114 103.454Z" fill="white"/>
<path d="M272.533 109.138H261.386L259.813 113.44H253.982L263.632 88.4933H270.288L279.899 113.44H274.101L272.533 109.138ZM262.807 104.539H271.074L266.963 93.093L262.814 104.539H262.807Z" fill="white"/>
<path d="M279.748 100.979C279.748 93.3149 285.546 88.0743 292.836 88.0743C298.521 88.0743 301.699 91.0689 303.457 94.1714L298.895 96.4173C297.848 94.3998 295.602 92.7883 292.836 92.7883C288.497 92.7883 285.204 96.2651 285.204 100.979C285.204 105.693 288.497 109.17 292.836 109.17C295.602 109.17 297.848 107.603 298.895 105.541L303.457 107.749C301.661 110.851 298.521 113.884 292.836 113.884C285.546 113.884 279.748 108.65 279.748 100.979Z" fill="white"/>
<path d="M306.705 107.381C307.676 108.313 308.951 109.176 310.671 109.176C313.031 109.176 314.56 107.609 314.56 105.173V88.493H319.87V105.249C319.87 111.156 316.203 113.884 311.083 113.884C308.539 113.884 306.185 113.211 304.39 111.454L306.705 107.374V107.381Z" fill="white"/>
<path d="M339.468 109.138H328.321L326.747 113.44H320.917L330.567 88.4933H337.222L346.834 113.44H341.035L339.468 109.138ZM329.742 104.539H338.009L333.898 93.093L329.748 104.539H329.742Z" fill="white"/>
</svg>
