<svg width="20" height="20" viewBox="0 0 20 20" fill="none" xmlns="http://www.w3.org/2000/svg">
<path d="M4.75 16L14.75 16C15.1642 16 15.5 16.3358 15.5 16.75C15.5 17.1297 15.2178 17.4435 14.8518 17.4932L14.75 17.5L4.75 17.5C4.33578 17.4999 4 17.1642 4 16.7499C4 16.3703 4.28216 16.0565 4.64823 16.0068L4.75 16Z" fill="white"/>
<path d="M16.75 14C18.1925 14 19.387 15.1143 19.4941 16.5732L19.5 16.75C19.5 18.1925 18.3857 19.387 16.9268 19.4941L16.75 19.5C15.3075 19.5 14.113 18.3857 14.0059 16.9268L14 16.75C14 15.3075 15.1143 14.113 16.5732 14.0059L16.75 14ZM16.6562 15.5039C16.0071 15.5518 15.4995 16.0947 15.499 16.7227L15.5039 16.8438C15.5518 17.4929 16.0947 18.0005 16.7227 18.001L16.8438 17.9961C17.4929 17.9482 18.0005 17.4053 18.001 16.7773L17.9961 16.6562C17.9482 16.0071 17.4055 15.5 16.75 15.5L16.6562 15.5039Z" fill="white"/>
<path d="M14.75 2C15.1642 2 15.5 2.33579 15.5 2.75C15.5 3.1297 15.2178 3.44349 14.8518 3.49315L14.75 3.5H4.75C4.33579 3.5 4 3.16421 4 2.75C4 2.3703 4.28215 2.05651 4.64823 2.00685L4.75 2H14.75Z" fill="white"/>
<path d="M16.75 0C18.1925 0 19.387 1.11433 19.4941 2.57324L19.5 2.75C19.5 4.1925 18.3857 5.38702 16.9268 5.49414L16.75 5.5C15.3075 5.5 14.113 4.38567 14.0059 2.92676L14 2.75C14 1.3075 15.1143 0.112982 16.5732 0.00585938L16.75 0ZM16.6562 1.50391C16.0071 1.5518 15.4995 2.09471 15.499 2.72266L15.5039 2.84375C15.5518 3.49294 16.0947 4.00047 16.7227 4.00098L16.8438 3.99609C17.4929 3.9482 18.0005 3.40529 18.001 2.77734L17.9961 2.65625C17.9482 2.00706 17.4055 1.5 16.75 1.5L16.6562 1.50391Z" fill="white"/>
<path d="M2.75 0C4.1925 0 5.38702 1.11433 5.49414 2.57324L5.5 2.75C5.5 4.1925 4.38567 5.38702 2.92676 5.49414L2.75 5.5C1.3075 5.5 0.112982 4.38567 0.00585938 2.92676L0 2.75C0 1.3075 1.11433 0.112982 2.57324 0.00585938L2.75 0ZM2.65625 1.50391C2.00706 1.5518 1.49953 2.09471 1.49902 2.72266L1.50391 2.84375C1.5518 3.49294 2.09471 4.00047 2.72266 4.00098L2.84375 3.99609C3.49294 3.9482 4.00047 3.40529 4.00098 2.77734L3.99609 2.65625C3.9482 2.00706 3.40549 1.5 2.75 1.5L2.65625 1.50391Z" fill="white"/>
<path d="M2.75 14C4.1925 14 5.38702 15.1143 5.49414 16.5732L5.5 16.75C5.5 18.1925 4.38567 19.387 2.92676 19.4941L2.75 19.5C1.3075 19.5 0.112982 18.3857 0.00585938 16.9268L0 16.75C0 15.3075 1.11433 14.113 2.57324 14.0059L2.75 14ZM2.65625 15.5039C2.00706 15.5518 1.49953 16.0947 1.49902 16.7227L1.50391 16.8438C1.5518 17.4929 2.09471 18.0005 2.72266 18.001L2.84375 17.9961C3.49294 17.9482 4.00047 17.4053 4.00098 16.7773L3.99609 16.6562C3.9482 16.0071 3.40549 15.5 2.75 15.5L2.65625 15.5039Z" fill="white"/>
<path d="M2.75005 4C3.12975 4 3.44354 4.28216 3.4932 4.64823L3.50005 4.75L3.5 14.75C3.5 15.1642 3.16421 15.5 2.75 15.5C2.3703 15.5 2.05651 15.2178 2.00685 14.8518L2 14.75L2.00005 4.75C2.00005 4.33578 2.33584 4 2.75005 4Z" fill="white"/>
<path d="M16.7501 4C17.1298 4 17.4436 4.28216 17.4932 4.64824L17.5001 4.75001L17.5 14.75C17.5 15.1642 17.1642 15.5 16.75 15.5C16.3703 15.5 16.0565 15.2178 16.0068 14.8518L16 14.75L16.0001 4.74999C16.0001 4.33578 16.3359 4 16.7501 4Z" fill="white"/>
<path d="M11.6381 6.45896C12.0306 6.15454 12.5975 6.18279 12.9576 6.54335C13.3477 6.93394 13.3475 7.56676 12.9571 7.95711C12.5668 8.34746 11.9339 8.34766 11.5433 7.95756C11.1828 7.59747 11.1545 7.03056 11.459 6.63807L11.543 6.541L11.6381 6.45896Z" fill="white"/>
<path d="M3.72222 8.22222C7.89504 8.22222 11.2778 11.605 11.2778 15.783C11.2752 16.145 11.2463 16.5063 11.1913 16.8641C11.1283 17.2735 10.7453 17.5543 10.3359 17.4913C9.92654 17.4283 9.64573 17.0453 9.70872 16.6359C9.75269 16.3502 9.77578 16.0616 9.77778 15.7778C9.77778 12.4334 7.06661 9.72222 3.72911 9.72219C3.43894 9.72485 3.14933 9.74802 2.86244 9.79152C2.4529 9.85362 2.07057 9.57197 2.00848 9.16244C1.94638 8.7529 2.22803 8.37057 2.63756 8.30848C2.99434 8.25438 3.35449 8.22557 3.72222 8.22222Z" fill="white"/>
</svg>
