<svg width="20" height="20" viewBox="0 0 20 20" fill="none" xmlns="http://www.w3.org/2000/svg">
<path d="M10.042 6.00781C11.4976 6.09397 12.8156 6.90564 13.5469 8.1709L14.4668 9.76172C15.0222 10.7226 15.7917 11.5429 16.7344 12.1719L16.9189 12.3047C17.9136 13.0614 18.4992 14.2403 18.499 15.5137L18.4932 15.7197C18.3748 17.8359 16.6214 19.4998 14.4932 19.5H14.0986C13.036 19.5 12.0171 19.0776 11.2656 18.3262L10.9268 17.9873C10.6147 17.6752 10.191 17.4996 9.7793 17.499L9.61816 17.5049C9.22413 17.5362 8.85336 17.7073 8.57324 17.9873L8.23438 18.3262C7.48293 19.0776 6.46309 19.5 5.40039 19.5H5.00684C2.79387 19.5 0.99965 17.706 1 15.4697L1.00781 15.2432C1.08567 13.9956 1.7419 12.854 2.78418 12.1592L2.84082 12.1211C3.73116 11.5275 4.47871 10.7437 5.0293 9.82617L6.05957 8.10938C6.84486 6.80077 8.259 6 9.78516 6L10.042 6.00781ZM9.58594 7.50684C8.66402 7.5714 7.82557 8.08139 7.3457 8.88086L6.31543 10.5977C5.65057 11.7057 4.74803 12.6524 3.67285 13.3691L3.61621 13.4072C2.96412 13.842 2.55347 14.5565 2.50586 15.3135L2.5 15.4932C2.50006 16.8777 3.62233 18 5.00684 18H5.40039C6.0652 18 6.70272 17.7357 7.17285 17.2656L7.5127 16.9268C8.04525 16.3943 8.74945 16.0692 9.52832 16.0078L9.75 16C10.5891 16.0001 11.394 16.3334 11.9873 16.9268L12.3262 17.2656C12.7963 17.7357 13.4338 18 14.0986 18H14.4932C15.8243 17.9998 16.9219 16.9588 16.9951 15.6572L17 15.4932C17 14.7095 16.6327 13.9712 16.0293 13.5117L15.584 13.1982C14.6014 12.4821 13.7778 11.5676 13.168 10.5127L12.248 8.9209C11.7692 8.09269 10.9061 7.56127 9.97559 7.50586L9.77441 7.49902L9.58594 7.50684Z" fill="white"/>
<path d="M2.25 5C3.49264 5 4.5 6.00736 4.5 7.25C4.5 8.49264 3.49264 9.5 2.25 9.5C1.00736 9.5 0 8.49264 0 7.25C0 6.00736 1.00736 5 2.25 5ZM2.25 6.5C1.83579 6.5 1.5 6.83579 1.5 7.25C1.5 7.66421 1.83579 8 2.25 8C2.66421 8 3 7.66421 3 7.25C3 6.83579 2.66421 6.5 2.25 6.5Z" fill="white"/>
<path d="M17.25 5C18.4926 5 19.5 6.00736 19.5 7.25C19.5 8.49264 18.4926 9.5 17.25 9.5C16.0074 9.5 15 8.49264 15 7.25C15 6.00736 16.0074 5 17.25 5ZM17.25 6.5C16.8358 6.5 16.5 6.83579 16.5 7.25C16.5 7.66421 16.8358 8 17.25 8C17.6642 8 18 7.66421 18 7.25C18 6.83579 17.6642 6.5 17.25 6.5Z" fill="white"/>
<path d="M6.53516 0C7.7778 0 8.78516 1.00736 8.78516 2.25C8.78516 3.49264 7.7778 4.5 6.53516 4.5C5.29252 4.5 4.28516 3.49264 4.28516 2.25C4.28516 1.00736 5.29252 0 6.53516 0ZM6.53516 1.5C6.12094 1.5 5.78516 1.83579 5.78516 2.25C5.78516 2.66421 6.12094 3 6.53516 3C6.94937 3 7.28516 2.66421 7.28516 2.25C7.28516 1.83579 6.94937 1.5 6.53516 1.5Z" fill="white"/>
<path d="M12.9648 0C14.2075 0 15.2148 1.00736 15.2148 2.25C15.2148 3.49264 14.2075 4.5 12.9648 4.5C11.7222 4.5 10.7148 3.49264 10.7148 2.25C10.7148 1.00736 11.7222 0 12.9648 0ZM12.9648 1.5C12.5506 1.5 12.2148 1.83579 12.2148 2.25C12.2148 2.66421 12.5506 3 12.9648 3C13.3791 3 13.7148 2.66421 13.7148 2.25C13.7148 1.83579 13.3791 1.5 12.9648 1.5Z" fill="white"/>
</svg>
